{
    "asset" : {
        "generator" : "Khronos glTF Blender I/O v1.5.17",
        "version" : "2.0"
    },
    "extensionsUsed" : [
        "KHR_materials_unlit"
    ],
    "scene" : 0,
    "scenes" : [
        {
            "name" : "Scene",
            "nodes" : [
                0,
                1,
                2
            ]
        }
    ],
    "nodes" : [
        {
            "mesh" : 0,
            "name" : "House_008_Material #126 [House_008]_0",
            "rotation" : [
                -0.7071069478988647,
                0,
                0,
                -0.7071067094802856
            ],
            "translation" : [
                0.16147364675998688,
                0,
                -0.03597775101661682
            ]
        },
        {
            "mesh" : 1,
            "name" : "voiture",
            "translation" : [
                1.9367642402648926,
                0.1279304325580597,
                1.973543405532837
            ]
        },
        {
            "mesh" : 2,
            "name" : "route",
            "translation" : [
                2.1183295249938965,
                -0.03819853067398071,
                2.2431819438934326
            ]
        }
    ],
    "animations" : [
        {
            "channels" : [
                {
                    "sampler" : 0,
                    "target" : {
                        "node" : 1,
                        "path" : "translation"
                    }
                },
                {
                    "sampler" : 1,
                    "target" : {
                        "node" : 1,
                        "path" : "rotation"
                    }
                },
                {
                    "sampler" : 2,
                    "target" : {
                        "node" : 1,
                        "path" : "scale"
                    }
                }
            ],
            "name" : "voitureAction",
            "samplers" : [
                {
                    "input" : 16,
                    "interpolation" : "LINEAR",
                    "output" : 17
                },
                {
                    "input" : 16,
                    "interpolation" : "LINEAR",
                    "output" : 18
                },
                {
                    "input" : 16,
                    "interpolation" : "LINEAR",
                    "output" : 19
                }
            ]
        }
    ],
    "materials" : [
        {
            "doubleSided" : true,
            "extensions" : {
                "KHR_materials_unlit" : {}
            },
            "name" : "Material_126_House_008",
            "pbrMetallicRoughness" : {
                "baseColorTexture" : {
                    "index" : 0
                },
                "metallicFactor" : 0,
                "roughnessFactor" : 0.9
            }
        },
        {
            "doubleSided" : true,
            "name" : "Material.002",
            "pbrMetallicRoughness" : {
                "baseColorTexture" : {
                    "index" : 1
                },
                "metallicFactor" : 0,
                "roughnessFactor" : 0.5
            }
        },
        {
            "doubleSided" : true,
            "name" : "caroserie",
            "pbrMetallicRoughness" : {
                "baseColorTexture" : {
                    "index" : 2
                },
                "metallicFactor" : 0,
                "roughnessFactor" : 0.1818181872367859
            }
        },
        {
            "doubleSided" : true,
            "name" : "Material.001",
            "pbrMetallicRoughness" : {
                "baseColorTexture" : {
                    "index" : 3
                },
                "metallicFactor" : 0
            }
        }
    ],
    "meshes" : [
        {
            "name" : "House_008_Material #126 [House_008]_0",
            "primitives" : [
                {
                    "attributes" : {
                        "POSITION" : 0,
                        "NORMAL" : 1,
                        "TEXCOORD_0" : 2
                    },
                    "indices" : 3,
                    "material" : 0
                }
            ]
        },
        {
            "name" : "Cylinder.001",
            "primitives" : [
                {
                    "attributes" : {
                        "POSITION" : 4,
                        "NORMAL" : 5,
                        "TEXCOORD_0" : 6
                    },
                    "indices" : 7,
                    "material" : 1
                },
                {
                    "attributes" : {
                        "POSITION" : 8,
                        "NORMAL" : 9,
                        "TEXCOORD_0" : 10
                    },
                    "indices" : 11,
                    "material" : 2
                }
            ]
        },
        {
            "name" : "Cube",
            "primitives" : [
                {
                    "attributes" : {
                        "POSITION" : 12,
                        "NORMAL" : 13,
                        "TEXCOORD_0" : 14
                    },
                    "indices" : 15,
                    "material" : 3
                }
            ]
        }
    ],
    "textures" : [
        {
            "sampler" : 0,
            "source" : 0
        },
        {
            "sampler" : 0,
            "source" : 1
        },
        {
            "sampler" : 0,
            "source" : 2
        },
        {
            "sampler" : 0,
            "source" : 3
        }
    ],
    "images" : [
        {
            "mimeType" : "image/jpeg",
            "name" : "Material_126_House_008_diffuse",
            "uri" : "textures/Material_126_House_008_diffuse.jpg"
        },
        {
            "mimeType" : "image/png",
            "name" : "roues",
            "uri" : "textures/roues.png"
        },
        {
            "mimeType" : "image/png",
            "name" : "voiture-carosserie",
            "uri" : "textures/voiture-carosserie.png"
        },
        {
            "mimeType" : "image/png",
            "name" : "route",
            "uri" : "textures/route.png"
        }
    ],
    "accessors" : [
        {
            "bufferView" : 0,
            "componentType" : 5126,
            "count" : 2626,
            "max" : [
                2.158676862716675,
                1.5836635828018188,
                0
            ],
            "min" : [
                -2.158676862716675,
                -1.5836635828018188,
                -3.5172901153564453
            ],
            "type" : "VEC3"
        },
        {
            "bufferView" : 1,
            "componentType" : 5126,
            "count" : 2626,
            "type" : "VEC3"
        },
        {
            "bufferView" : 2,
            "componentType" : 5126,
            "count" : 2626,
            "type" : "VEC2"
        },
        {
            "bufferView" : 3,
            "componentType" : 5123,
            "count" : 2895,
            "type" : "SCALAR"
        },
        {
            "bufferView" : 4,
            "componentType" : 5126,
            "count" : 768,
            "max" : [
                0.30362749099731445,
                0.03206327557563782,
                0.21460318565368652
            ],
            "min" : [
                -0.2790611982345581,
                -0.12044503539800644,
                -0.2150406837463379
            ],
            "type" : "VEC3"
        },
        {
            "bufferView" : 5,
            "componentType" : 5126,
            "count" : 768,
            "type" : "VEC3"
        },
        {
            "bufferView" : 6,
            "componentType" : 5126,
            "count" : 768,
            "type" : "VEC2"
        },
        {
            "bufferView" : 7,
            "componentType" : 5123,
            "count" : 1488,
            "type" : "SCALAR"
        },
        {
            "bufferView" : 8,
            "componentType" : 5126,
            "count" : 387,
            "max" : [
                0.42235231399536133,
                0.23816516995429993,
                0.17388486862182617
            ],
            "min" : [
                -0.47598421573638916,
                -0.04604790359735489,
                -0.172987699508667
            ],
            "type" : "VEC3"
        },
        {
            "bufferView" : 9,
            "componentType" : 5126,
            "count" : 387,
            "type" : "VEC3"
        },
        {
            "bufferView" : 10,
            "componentType" : 5126,
            "count" : 387,
            "type" : "VEC2"
        },
        {
            "bufferView" : 11,
            "componentType" : 5123,
            "count" : 720,
            "type" : "SCALAR"
        },
        {
            "bufferView" : 12,
            "componentType" : 5126,
            "count" : 80,
            "max" : [
                0.2502901554107666,
                0.03298879414796829,
                0.532103419303894
            ],
            "min" : [
                -4.846108913421631,
                -0.03298879414796829,
                -1.414117693901062
            ],
            "type" : "VEC3"
        },
        {
            "bufferView" : 13,
            "componentType" : 5126,
            "count" : 80,
            "type" : "VEC3"
        },
        {
            "bufferView" : 14,
            "componentType" : 5126,
            "count" : 80,
            "type" : "VEC2"
        },
        {
            "bufferView" : 15,
            "componentType" : 5123,
            "count" : 180,
            "type" : "SCALAR"
        },
        {
            "bufferView" : 16,
            "componentType" : 5126,
            "count" : 59,
            "max" : [
                2.4583333333333335
            ],
            "min" : [
                0.041666666666666664
            ],
            "type" : "SCALAR"
        },
        {
            "bufferView" : 17,
            "componentType" : 5126,
            "count" : 59,
            "type" : "VEC3"
        },
        {
            "bufferView" : 18,
            "componentType" : 5126,
            "count" : 59,
            "type" : "VEC4"
        },
        {
            "bufferView" : 19,
            "componentType" : 5126,
            "count" : 59,
            "type" : "VEC3"
        }
    ],
    "bufferViews" : [
        {
            "buffer" : 0,
            "byteLength" : 31512,
            "byteOffset" : 0
        },
        {
            "buffer" : 0,
            "byteLength" : 31512,
            "byteOffset" : 31512
        },
        {
            "buffer" : 0,
            "byteLength" : 21008,
            "byteOffset" : 63024
        },
        {
            "buffer" : 0,
            "byteLength" : 5790,
            "byteOffset" : 84032
        },
        {
            "buffer" : 0,
            "byteLength" : 9216,
            "byteOffset" : 89824
        },
        {
            "buffer" : 0,
            "byteLength" : 9216,
            "byteOffset" : 99040
        },
        {
            "buffer" : 0,
            "byteLength" : 6144,
            "byteOffset" : 108256
        },
        {
            "buffer" : 0,
            "byteLength" : 2976,
            "byteOffset" : 114400
        },
        {
            "buffer" : 0,
            "byteLength" : 4644,
            "byteOffset" : 117376
        },
        {
            "buffer" : 0,
            "byteLength" : 4644,
            "byteOffset" : 122020
        },
        {
            "buffer" : 0,
            "byteLength" : 3096,
            "byteOffset" : 126664
        },
        {
            "buffer" : 0,
            "byteLength" : 1440,
            "byteOffset" : 129760
        },
        {
            "buffer" : 0,
            "byteLength" : 960,
            "byteOffset" : 131200
        },
        {
            "buffer" : 0,
            "byteLength" : 960,
            "byteOffset" : 132160
        },
        {
            "buffer" : 0,
            "byteLength" : 640,
            "byteOffset" : 133120
        },
        {
            "buffer" : 0,
            "byteLength" : 360,
            "byteOffset" : 133760
        },
        {
            "buffer" : 0,
            "byteLength" : 236,
            "byteOffset" : 134120
        },
        {
            "buffer" : 0,
            "byteLength" : 708,
            "byteOffset" : 134356
        },
        {
            "buffer" : 0,
            "byteLength" : 944,
            "byteOffset" : 135064
        },
        {
            "buffer" : 0,
            "byteLength" : 708,
            "byteOffset" : 136008
        }
    ],
    "samplers" : [
        {
            "magFilter" : 9729,
            "minFilter" : 9987
        }
    ],
    "buffers" : [
        {
            "byteLength" : 136716,
            "uri" : "house.bin"
        }
    ]
}
