{
    "asset" : {
        "generator" : "Khronos glTF Blender I/O v1.5.17",
        "version" : "2.0"
    },
    "extensionsUsed" : [
        "KHR_materials_unlit"
    ],
    "scene" : 0,
    "scenes" : [
        {
            "name" : "Scene",
            "nodes" : [
                0,
                1,
                2
            ]
        }
    ],
    "nodes" : [
        {
            "mesh" : 0,
            "name" : "Grass",
            "scale" : [
                2.4190611839294434,
                0.02925698645412922,
                2.4190611839294434
            ],
            "translation" : [
                -0.006878495216369629,
                -0.019861221313476562,
                0.1635664701461792
            ]
        },
        {
            "mesh" : 1,
            "name" : "House_008_Material #126 [House_008]_0",
            "rotation" : [
                -0.7071069478988647,
                0,
                0,
                -0.7071067094802856
            ],
            "scale" : [
                -0.014391214586794376,
                -0.014391214586794376,
                -0.014391214586794376
            ],
            "translation" : [
                -0.06565350294113159,
                0,
                0
            ]
        },
        {
            "mesh" : 2,
            "name" : "voiture",
            "rotation" : [
                0.7071068286895752,
                0,
                0,
                0.7071068286895752
            ],
            "scale" : [
                0.07625415921211243,
                0.021511968225240707,
                0.07625415921211243
            ],
            "translation" : [
                1.87200129032135,
                0.08373956382274628,
                1.7800145149230957
            ]
        }
    ],
    "animations" : [
        {
            "channels" : [
                {
                    "sampler" : 0,
                    "target" : {
                        "node" : 2,
                        "path" : "translation"
                    }
                },
                {
                    "sampler" : 1,
                    "target" : {
                        "node" : 2,
                        "path" : "rotation"
                    }
                },
                {
                    "sampler" : 2,
                    "target" : {
                        "node" : 2,
                        "path" : "scale"
                    }
                }
            ],
            "name" : "voitureAction",
            "samplers" : [
                {
                    "input" : 16,
                    "interpolation" : "LINEAR",
                    "output" : 17
                },
                {
                    "input" : 16,
                    "interpolation" : "LINEAR",
                    "output" : 18
                },
                {
                    "input" : 16,
                    "interpolation" : "LINEAR",
                    "output" : 19
                }
            ]
        }
    ],
    "materials" : [
        {
            "doubleSided" : true,
            "name" : "Material",
            "pbrMetallicRoughness" : {
                "baseColorTexture" : {
                    "index" : 0
                },
                "metallicFactor" : 0
            }
        },
        {
            "doubleSided" : true,
            "extensions" : {
                "KHR_materials_unlit" : {}
            },
            "name" : "Material_126_House_008",
            "pbrMetallicRoughness" : {
                "baseColorTexture" : {
                    "index" : 1
                },
                "metallicFactor" : 0,
                "roughnessFactor" : 0.9
            }
        },
        {
            "doubleSided" : true,
            "name" : "Material.002",
            "pbrMetallicRoughness" : {
                "baseColorTexture" : {
                    "index" : 2
                },
                "metallicFactor" : 0,
                "roughnessFactor" : 0.5
            }
        },
        {
            "doubleSided" : true,
            "name" : "caroserie",
            "pbrMetallicRoughness" : {
                "baseColorTexture" : {
                    "index" : 3
                },
                "metallicFactor" : 0,
                "roughnessFactor" : 0.1818181872367859
            }
        }
    ],
    "meshes" : [
        {
            "name" : "Cube.001",
            "primitives" : [
                {
                    "attributes" : {
                        "POSITION" : 0,
                        "NORMAL" : 1,
                        "TEXCOORD_0" : 2
                    },
                    "indices" : 3,
                    "material" : 0
                }
            ]
        },
        {
            "name" : "House_008_Material #126 [House_008]_0",
            "primitives" : [
                {
                    "attributes" : {
                        "POSITION" : 4,
                        "NORMAL" : 5,
                        "TEXCOORD_0" : 6
                    },
                    "indices" : 7,
                    "material" : 1
                }
            ]
        },
        {
            "name" : "Cylinder.002",
            "primitives" : [
                {
                    "attributes" : {
                        "POSITION" : 8,
                        "NORMAL" : 9,
                        "TEXCOORD_0" : 10
                    },
                    "indices" : 11,
                    "material" : 2
                },
                {
                    "attributes" : {
                        "POSITION" : 12,
                        "NORMAL" : 13,
                        "TEXCOORD_0" : 14
                    },
                    "indices" : 15,
                    "material" : 3
                }
            ]
        }
    ],
    "textures" : [
        {
            "sampler" : 0,
            "source" : 0
        },
        {
            "sampler" : 0,
            "source" : 1
        },
        {
            "sampler" : 0,
            "source" : 2
        },
        {
            "sampler" : 0,
            "source" : 3
        }
    ],
    "images" : [
        {
            "mimeType" : "image/png",
            "name" : "grass",
            "uri" : "textures/grass.png"
        },
        {
            "mimeType" : "image/jpeg",
            "name" : "Material_126_House_008_diffuse",
            "uri" : "textures/Material_126_House_008_diffuse.jpg"
        },
        {
            "mimeType" : "image/png",
            "name" : "roues",
            "uri" : "textures/roues.png"
        },
        {
            "mimeType" : "image/png",
            "name" : "voiture-carosserie",
            "uri" : "textures/voiture-carosserie.png"
        }
    ],
    "accessors" : [
        {
            "bufferView" : 0,
            "componentType" : 5126,
            "count" : 24,
            "max" : [
                1,
                1,
                1
            ],
            "min" : [
                -1,
                -1,
                -1
            ],
            "type" : "VEC3"
        },
        {
            "bufferView" : 1,
            "componentType" : 5126,
            "count" : 24,
            "type" : "VEC3"
        },
        {
            "bufferView" : 2,
            "componentType" : 5126,
            "count" : 24,
            "type" : "VEC2"
        },
        {
            "bufferView" : 3,
            "componentType" : 5123,
            "count" : 36,
            "type" : "SCALAR"
        },
        {
            "bufferView" : 4,
            "componentType" : 5126,
            "count" : 2591,
            "max" : [
                122.74658966064453,
                90.05020904541016,
                200
            ],
            "min" : [
                -122.74658203125,
                -90.05020904541016,
                0
            ],
            "type" : "VEC3"
        },
        {
            "bufferView" : 5,
            "componentType" : 5126,
            "count" : 2591,
            "type" : "VEC3"
        },
        {
            "bufferView" : 6,
            "componentType" : 5126,
            "count" : 2591,
            "type" : "VEC2"
        },
        {
            "bufferView" : 7,
            "componentType" : 5123,
            "count" : 2895,
            "type" : "SCALAR"
        },
        {
            "bufferView" : 8,
            "componentType" : 5126,
            "count" : 768,
            "max" : [
                6.025432586669922,
                18.972328186035156,
                1
            ],
            "min" : [
                -1.6159706115722656,
                -0.9999923706054688,
                -1.0000001192092896
            ],
            "type" : "VEC3"
        },
        {
            "bufferView" : 9,
            "componentType" : 5126,
            "count" : 768,
            "type" : "VEC3"
        },
        {
            "bufferView" : 10,
            "componentType" : 5126,
            "count" : 768,
            "type" : "VEC2"
        },
        {
            "bufferView" : 11,
            "componentType" : 5123,
            "count" : 1488,
            "type" : "SCALAR"
        },
        {
            "bufferView" : 12,
            "componentType" : 5126,
            "count" : 364,
            "max" : [
                7.582394123077393,
                17.079505920410156,
                0.02435302734375
            ],
            "min" : [
                -4.198427200317383,
                0.9548730850219727,
                -3.7028284072875977
            ],
            "type" : "VEC3"
        },
        {
            "bufferView" : 13,
            "componentType" : 5126,
            "count" : 364,
            "type" : "VEC3"
        },
        {
            "bufferView" : 14,
            "componentType" : 5126,
            "count" : 364,
            "type" : "VEC2"
        },
        {
            "bufferView" : 15,
            "componentType" : 5123,
            "count" : 720,
            "type" : "SCALAR"
        },
        {
            "bufferView" : 16,
            "componentType" : 5126,
            "count" : 49,
            "max" : [
                2.0416666666666665
            ],
            "min" : [
                0.041666666666666664
            ],
            "type" : "SCALAR"
        },
        {
            "bufferView" : 17,
            "componentType" : 5126,
            "count" : 49,
            "type" : "VEC3"
        },
        {
            "bufferView" : 18,
            "componentType" : 5126,
            "count" : 49,
            "type" : "VEC4"
        },
        {
            "bufferView" : 19,
            "componentType" : 5126,
            "count" : 49,
            "type" : "VEC3"
        }
    ],
    "bufferViews" : [
        {
            "buffer" : 0,
            "byteLength" : 288,
            "byteOffset" : 0
        },
        {
            "buffer" : 0,
            "byteLength" : 288,
            "byteOffset" : 288
        },
        {
            "buffer" : 0,
            "byteLength" : 192,
            "byteOffset" : 576
        },
        {
            "buffer" : 0,
            "byteLength" : 72,
            "byteOffset" : 768
        },
        {
            "buffer" : 0,
            "byteLength" : 31092,
            "byteOffset" : 840
        },
        {
            "buffer" : 0,
            "byteLength" : 31092,
            "byteOffset" : 31932
        },
        {
            "buffer" : 0,
            "byteLength" : 20728,
            "byteOffset" : 63024
        },
        {
            "buffer" : 0,
            "byteLength" : 5790,
            "byteOffset" : 83752
        },
        {
            "buffer" : 0,
            "byteLength" : 9216,
            "byteOffset" : 89544
        },
        {
            "buffer" : 0,
            "byteLength" : 9216,
            "byteOffset" : 98760
        },
        {
            "buffer" : 0,
            "byteLength" : 6144,
            "byteOffset" : 107976
        },
        {
            "buffer" : 0,
            "byteLength" : 2976,
            "byteOffset" : 114120
        },
        {
            "buffer" : 0,
            "byteLength" : 4368,
            "byteOffset" : 117096
        },
        {
            "buffer" : 0,
            "byteLength" : 4368,
            "byteOffset" : 121464
        },
        {
            "buffer" : 0,
            "byteLength" : 2912,
            "byteOffset" : 125832
        },
        {
            "buffer" : 0,
            "byteLength" : 1440,
            "byteOffset" : 128744
        },
        {
            "buffer" : 0,
            "byteLength" : 196,
            "byteOffset" : 130184
        },
        {
            "buffer" : 0,
            "byteLength" : 588,
            "byteOffset" : 130380
        },
        {
            "buffer" : 0,
            "byteLength" : 784,
            "byteOffset" : 130968
        },
        {
            "buffer" : 0,
            "byteLength" : 588,
            "byteOffset" : 131752
        }
    ],
    "samplers" : [
        {
            "magFilter" : 9729,
            "minFilter" : 9987
        }
    ],
    "buffers" : [
        {
            "byteLength" : 132340,
            "uri" : "house.bin"
        }
    ]
}
