{
    "asset" : {
        "generator" : "Khronos glTF Blender I/O v1.5.17",
        "version" : "2.0"
    },
    "extensionsUsed" : [
        "KHR_materials_unlit"
    ],
    "scene" : 0,
    "scenes" : [
        {
            "name" : "Scene",
            "nodes" : [
                0,
                1,
                2
            ]
        }
    ],
    "nodes" : [
        {
            "mesh" : 0,
            "name" : "Grass",
            "translation" : [
                0.025753915309906006,
                -0.24281682074069977,
                0.2532271146774292
            ]
        },
        {
            "mesh" : 1,
            "name" : "House_008_Material #126 [House_008]_0",
            "rotation" : [
                -0.7071069478988647,
                0,
                0,
                -0.7071067094802856
            ],
            "translation" : [
                0.16147364675998688,
                0,
                -0.26418763399124146
            ]
        },
        {
            "mesh" : 2,
            "name" : "voiture",
            "translation" : [
                1.9367642402648926,
                0.1279304325580597,
                1.973543405532837
            ]
        }
    ],
    "animations" : [
        {
            "channels" : [
                {
                    "sampler" : 0,
                    "target" : {
                        "node" : 2,
                        "path" : "translation"
                    }
                },
                {
                    "sampler" : 1,
                    "target" : {
                        "node" : 2,
                        "path" : "rotation"
                    }
                },
                {
                    "sampler" : 2,
                    "target" : {
                        "node" : 2,
                        "path" : "scale"
                    }
                }
            ],
            "name" : "voitureAction",
            "samplers" : [
                {
                    "input" : 16,
                    "interpolation" : "LINEAR",
                    "output" : 17
                },
                {
                    "input" : 16,
                    "interpolation" : "LINEAR",
                    "output" : 18
                },
                {
                    "input" : 16,
                    "interpolation" : "LINEAR",
                    "output" : 19
                }
            ]
        }
    ],
    "materials" : [
        {
            "doubleSided" : true,
            "name" : "Material",
            "pbrMetallicRoughness" : {
                "baseColorTexture" : {
                    "index" : 0
                },
                "metallicFactor" : 0
            }
        },
        {
            "doubleSided" : true,
            "extensions" : {
                "KHR_materials_unlit" : {}
            },
            "name" : "Material_126_House_008",
            "pbrMetallicRoughness" : {
                "baseColorTexture" : {
                    "index" : 1
                },
                "metallicFactor" : 0,
                "roughnessFactor" : 0.9
            }
        },
        {
            "doubleSided" : true,
            "name" : "Material.002",
            "pbrMetallicRoughness" : {
                "baseColorTexture" : {
                    "index" : 2
                },
                "metallicFactor" : 0,
                "roughnessFactor" : 0.5
            }
        },
        {
            "doubleSided" : true,
            "name" : "caroserie",
            "pbrMetallicRoughness" : {
                "baseColorTexture" : {
                    "index" : 3
                },
                "metallicFactor" : 0,
                "roughnessFactor" : 0.1818181872367859
            }
        }
    ],
    "meshes" : [
        {
            "name" : "Cube.001",
            "primitives" : [
                {
                    "attributes" : {
                        "POSITION" : 0,
                        "NORMAL" : 1,
                        "TEXCOORD_0" : 2
                    },
                    "indices" : 3,
                    "material" : 0
                }
            ]
        },
        {
            "name" : "House_008_Material #126 [House_008]_0",
            "primitives" : [
                {
                    "attributes" : {
                        "POSITION" : 4,
                        "NORMAL" : 5,
                        "TEXCOORD_0" : 6
                    },
                    "indices" : 7,
                    "material" : 1
                }
            ]
        },
        {
            "name" : "Cylinder.001",
            "primitives" : [
                {
                    "attributes" : {
                        "POSITION" : 8,
                        "NORMAL" : 9,
                        "TEXCOORD_0" : 10
                    },
                    "indices" : 11,
                    "material" : 2
                },
                {
                    "attributes" : {
                        "POSITION" : 12,
                        "NORMAL" : 13,
                        "TEXCOORD_0" : 14
                    },
                    "indices" : 15,
                    "material" : 3
                }
            ]
        }
    ],
    "textures" : [
        {
            "sampler" : 0,
            "source" : 0
        },
        {
            "sampler" : 0,
            "source" : 1
        },
        {
            "sampler" : 0,
            "source" : 2
        },
        {
            "sampler" : 0,
            "source" : 3
        }
    ],
    "images" : [
        {
            "mimeType" : "image/png",
            "name" : "grass",
            "uri" : "textures/grass.png"
        },
        {
            "mimeType" : "image/jpeg",
            "name" : "Material_126_House_008_diffuse",
            "uri" : "textures/Material_126_House_008_diffuse.jpg"
        },
        {
            "mimeType" : "image/png",
            "name" : "roues",
            "uri" : "textures/roues.png"
        },
        {
            "mimeType" : "image/png",
            "name" : "voiture-carosserie",
            "uri" : "textures/voiture-carosserie.png"
        }
    ],
    "accessors" : [
        {
            "bufferView" : 0,
            "componentType" : 5126,
            "count" : 90,
            "max" : [
                2.4190611839294434,
                0.24903376400470734,
                2.4190611839294434
            ],
            "min" : [
                -2.4190611839294434,
                0.1267281174659729,
                -2.4190611839294434
            ],
            "type" : "VEC3"
        },
        {
            "bufferView" : 1,
            "componentType" : 5126,
            "count" : 90,
            "type" : "VEC3"
        },
        {
            "bufferView" : 2,
            "componentType" : 5126,
            "count" : 90,
            "type" : "VEC2"
        },
        {
            "bufferView" : 3,
            "componentType" : 5123,
            "count" : 288,
            "type" : "SCALAR"
        },
        {
            "bufferView" : 4,
            "componentType" : 5126,
            "count" : 2626,
            "max" : [
                2.158676862716675,
                1.5836635828018188,
                0
            ],
            "min" : [
                -2.158676862716675,
                -1.5836635828018188,
                -3.5172901153564453
            ],
            "type" : "VEC3"
        },
        {
            "bufferView" : 5,
            "componentType" : 5126,
            "count" : 2626,
            "type" : "VEC3"
        },
        {
            "bufferView" : 6,
            "componentType" : 5126,
            "count" : 2626,
            "type" : "VEC2"
        },
        {
            "bufferView" : 7,
            "componentType" : 5123,
            "count" : 2895,
            "type" : "SCALAR"
        },
        {
            "bufferView" : 8,
            "componentType" : 5126,
            "count" : 768,
            "max" : [
                0.30362749099731445,
                0.03206327557563782,
                0.21460318565368652
            ],
            "min" : [
                -0.2790611982345581,
                -0.12044503539800644,
                -0.2150406837463379
            ],
            "type" : "VEC3"
        },
        {
            "bufferView" : 9,
            "componentType" : 5126,
            "count" : 768,
            "type" : "VEC3"
        },
        {
            "bufferView" : 10,
            "componentType" : 5126,
            "count" : 768,
            "type" : "VEC2"
        },
        {
            "bufferView" : 11,
            "componentType" : 5123,
            "count" : 1488,
            "type" : "SCALAR"
        },
        {
            "bufferView" : 12,
            "componentType" : 5126,
            "count" : 387,
            "max" : [
                0.42235231399536133,
                0.23816516995429993,
                0.17388486862182617
            ],
            "min" : [
                -0.47598421573638916,
                -0.04604790359735489,
                -0.172987699508667
            ],
            "type" : "VEC3"
        },
        {
            "bufferView" : 13,
            "componentType" : 5126,
            "count" : 387,
            "type" : "VEC3"
        },
        {
            "bufferView" : 14,
            "componentType" : 5126,
            "count" : 387,
            "type" : "VEC2"
        },
        {
            "bufferView" : 15,
            "componentType" : 5123,
            "count" : 720,
            "type" : "SCALAR"
        },
        {
            "bufferView" : 16,
            "componentType" : 5126,
            "count" : 50,
            "max" : [
                2.0833333333333335
            ],
            "min" : [
                0.041666666666666664
            ],
            "type" : "SCALAR"
        },
        {
            "bufferView" : 17,
            "componentType" : 5126,
            "count" : 50,
            "type" : "VEC3"
        },
        {
            "bufferView" : 18,
            "componentType" : 5126,
            "count" : 50,
            "type" : "VEC4"
        },
        {
            "bufferView" : 19,
            "componentType" : 5126,
            "count" : 50,
            "type" : "VEC3"
        }
    ],
    "bufferViews" : [
        {
            "buffer" : 0,
            "byteLength" : 1080,
            "byteOffset" : 0
        },
        {
            "buffer" : 0,
            "byteLength" : 1080,
            "byteOffset" : 1080
        },
        {
            "buffer" : 0,
            "byteLength" : 720,
            "byteOffset" : 2160
        },
        {
            "buffer" : 0,
            "byteLength" : 576,
            "byteOffset" : 2880
        },
        {
            "buffer" : 0,
            "byteLength" : 31512,
            "byteOffset" : 3456
        },
        {
            "buffer" : 0,
            "byteLength" : 31512,
            "byteOffset" : 34968
        },
        {
            "buffer" : 0,
            "byteLength" : 21008,
            "byteOffset" : 66480
        },
        {
            "buffer" : 0,
            "byteLength" : 5790,
            "byteOffset" : 87488
        },
        {
            "buffer" : 0,
            "byteLength" : 9216,
            "byteOffset" : 93280
        },
        {
            "buffer" : 0,
            "byteLength" : 9216,
            "byteOffset" : 102496
        },
        {
            "buffer" : 0,
            "byteLength" : 6144,
            "byteOffset" : 111712
        },
        {
            "buffer" : 0,
            "byteLength" : 2976,
            "byteOffset" : 117856
        },
        {
            "buffer" : 0,
            "byteLength" : 4644,
            "byteOffset" : 120832
        },
        {
            "buffer" : 0,
            "byteLength" : 4644,
            "byteOffset" : 125476
        },
        {
            "buffer" : 0,
            "byteLength" : 3096,
            "byteOffset" : 130120
        },
        {
            "buffer" : 0,
            "byteLength" : 1440,
            "byteOffset" : 133216
        },
        {
            "buffer" : 0,
            "byteLength" : 200,
            "byteOffset" : 134656
        },
        {
            "buffer" : 0,
            "byteLength" : 600,
            "byteOffset" : 134856
        },
        {
            "buffer" : 0,
            "byteLength" : 800,
            "byteOffset" : 135456
        },
        {
            "buffer" : 0,
            "byteLength" : 600,
            "byteOffset" : 136256
        }
    ],
    "samplers" : [
        {
            "magFilter" : 9729,
            "minFilter" : 9987
        }
    ],
    "buffers" : [
        {
            "byteLength" : 136856,
            "uri" : "house.bin"
        }
    ]
}
