{
    "asset" : {
        "generator" : "Khronos glTF Blender I/O v1.5.17",
        "version" : "2.0"
    },
    "extensionsUsed" : [
        "KHR_materials_unlit"
    ],
    "scene" : 0,
    "scenes" : [
        {
            "name" : "Scene",
            "nodes" : [
                0,
                1,
                2,
                3,
                4
            ]
        }
    ],
    "nodes" : [
        {
            "mesh" : 0,
            "name" : "Grass",
            "scale" : [
                2.4190611839294434,
                0.02925698645412922,
                2.4190611839294434
            ],
            "translation" : [
                -0.006878495216369629,
                -0.019861221313476562,
                0.1635664701461792
            ]
        },
        {
            "mesh" : 1,
            "name" : "House_008_Material #126 [House_008]_0",
            "rotation" : [
                -0.7071069478988647,
                0,
                0,
                -0.7071067094802856
            ],
            "scale" : [
                -0.014391214586794376,
                -0.014391214586794376,
                -0.014391214586794376
            ],
            "translation" : [
                -0.06565350294113159,
                0,
                0
            ]
        },
        {
            "mesh" : 2,
            "name" : "voiture",
            "scale" : [
                0.17343628406524658,
                0.17343628406524658,
                0.17343628406524658
            ],
            "translation" : [
                2.00473952293396,
                0.25347834825515747,
                1.973991870880127
            ]
        },
        {
            "mesh" : 3,
            "name" : "roues",
            "rotation" : [
                0.7071068286895752,
                0,
                0,
                0.7071068286895752
            ],
            "scale" : [
                0.07625415921211243,
                0.021511968225240707,
                0.07625415921211243
            ],
            "translation" : [
                1.87200129032135,
                0.08373956382274628,
                1.7800145149230957
            ]
        },
        {
            "mesh" : 4,
            "name" : "roues.001",
            "rotation" : [
                0.7071068286895752,
                0,
                0,
                0.7071068286895752
            ],
            "scale" : [
                0.07625415921211243,
                0.021511968225240707,
                0.07625415921211243
            ],
            "translation" : [
                1.825031042098999,
                0.08373956382274628,
                1.7800145149230957
            ]
        }
    ],
    "materials" : [
        {
            "doubleSided" : true,
            "name" : "Material",
            "pbrMetallicRoughness" : {
                "baseColorTexture" : {
                    "index" : 0
                },
                "metallicFactor" : 0
            }
        },
        {
            "doubleSided" : true,
            "extensions" : {
                "KHR_materials_unlit" : {}
            },
            "name" : "Material_126_House_008",
            "pbrMetallicRoughness" : {
                "baseColorTexture" : {
                    "index" : 1
                },
                "metallicFactor" : 0,
                "roughnessFactor" : 0.9
            }
        },
        {
            "doubleSided" : true,
            "name" : "caroserie",
            "pbrMetallicRoughness" : {
                "baseColorTexture" : {
                    "index" : 2
                },
                "metallicFactor" : 0,
                "roughnessFactor" : 0.1818181872367859
            }
        },
        {
            "doubleSided" : true,
            "name" : "Material.002",
            "pbrMetallicRoughness" : {
                "baseColorTexture" : {
                    "index" : 3
                },
                "metallicFactor" : 0,
                "roughnessFactor" : 0.5
            }
        }
    ],
    "meshes" : [
        {
            "name" : "Cube.001",
            "primitives" : [
                {
                    "attributes" : {
                        "POSITION" : 0,
                        "NORMAL" : 1,
                        "TEXCOORD_0" : 2
                    },
                    "indices" : 3,
                    "material" : 0
                }
            ]
        },
        {
            "name" : "House_008_Material #126 [House_008]_0",
            "primitives" : [
                {
                    "attributes" : {
                        "POSITION" : 4,
                        "NORMAL" : 5,
                        "TEXCOORD_0" : 6
                    },
                    "indices" : 7,
                    "material" : 1
                }
            ]
        },
        {
            "name" : "Cube.002",
            "primitives" : [
                {
                    "attributes" : {
                        "POSITION" : 8,
                        "NORMAL" : 9,
                        "TEXCOORD_0" : 10
                    },
                    "indices" : 11,
                    "material" : 2
                }
            ]
        },
        {
            "name" : "Cylinder.002",
            "primitives" : [
                {
                    "attributes" : {
                        "POSITION" : 12,
                        "NORMAL" : 13,
                        "TEXCOORD_0" : 14
                    },
                    "indices" : 15,
                    "material" : 3
                }
            ]
        },
        {
            "name" : "Cylinder.004",
            "primitives" : [
                {
                    "attributes" : {
                        "POSITION" : 16,
                        "NORMAL" : 17,
                        "TEXCOORD_0" : 18
                    },
                    "indices" : 15,
                    "material" : 3
                }
            ]
        }
    ],
    "textures" : [
        {
            "sampler" : 0,
            "source" : 0
        },
        {
            "sampler" : 0,
            "source" : 1
        },
        {
            "sampler" : 0,
            "source" : 2
        },
        {
            "sampler" : 0,
            "source" : 3
        }
    ],
    "images" : [
        {
            "mimeType" : "image/png",
            "name" : "grass",
            "uri" : "textures/grass.png"
        },
        {
            "mimeType" : "image/jpeg",
            "name" : "Material_126_House_008_diffuse",
            "uri" : "textures/Material_126_House_008_diffuse.jpg"
        },
        {
            "mimeType" : "image/png",
            "name" : "voiture-carosserie",
            "uri" : "textures/voiture-carosserie.png"
        },
        {
            "mimeType" : "image/png",
            "name" : "roues",
            "uri" : "textures/roues.png"
        }
    ],
    "accessors" : [
        {
            "bufferView" : 0,
            "componentType" : 5126,
            "count" : 6534,
            "max" : [
                1,
                1,
                1
            ],
            "min" : [
                -1,
                -1,
                -1
            ],
            "type" : "VEC3"
        },
        {
            "bufferView" : 1,
            "componentType" : 5126,
            "count" : 6534,
            "type" : "VEC3"
        },
        {
            "bufferView" : 2,
            "componentType" : 5126,
            "count" : 6534,
            "type" : "VEC2"
        },
        {
            "bufferView" : 3,
            "componentType" : 5123,
            "count" : 36864,
            "type" : "SCALAR"
        },
        {
            "bufferView" : 4,
            "componentType" : 5126,
            "count" : 2591,
            "max" : [
                122.74658966064453,
                90.05020904541016,
                200
            ],
            "min" : [
                -122.74658203125,
                -90.05020904541016,
                0
            ],
            "type" : "VEC3"
        },
        {
            "bufferView" : 5,
            "componentType" : 5126,
            "count" : 2591,
            "type" : "VEC3"
        },
        {
            "bufferView" : 6,
            "componentType" : 5126,
            "count" : 2591,
            "type" : "VEC2"
        },
        {
            "bufferView" : 7,
            "componentType" : 5123,
            "count" : 2895,
            "type" : "SCALAR"
        },
        {
            "bufferView" : 8,
            "componentType" : 5126,
            "count" : 312,
            "max" : [
                2.56838321685791,
                0.6493293046951294,
                1
            ],
            "min" : [
                -2.6112513542175293,
                -0.9893881678581238,
                -1
            ],
            "type" : "VEC3"
        },
        {
            "bufferView" : 9,
            "componentType" : 5126,
            "count" : 312,
            "type" : "VEC3"
        },
        {
            "bufferView" : 10,
            "componentType" : 5126,
            "count" : 312,
            "type" : "VEC2"
        },
        {
            "bufferView" : 11,
            "componentType" : 5123,
            "count" : 720,
            "type" : "SCALAR"
        },
        {
            "bufferView" : 12,
            "componentType" : 5126,
            "count" : 384,
            "max" : [
                6.025432586669922,
                18.972320556640625,
                1
            ],
            "min" : [
                4.025432586669922,
                -0.9999923706054688,
                -1.0000001192092896
            ],
            "type" : "VEC3"
        },
        {
            "bufferView" : 13,
            "componentType" : 5126,
            "count" : 384,
            "type" : "VEC3"
        },
        {
            "bufferView" : 14,
            "componentType" : 5126,
            "count" : 384,
            "type" : "VEC2"
        },
        {
            "bufferView" : 15,
            "componentType" : 5123,
            "count" : 744,
            "type" : "SCALAR"
        },
        {
            "bufferView" : 16,
            "componentType" : 5126,
            "count" : 384,
            "max" : [
                1,
                18.972320556640625,
                1
            ],
            "min" : [
                -1,
                -1,
                -1.0000001192092896
            ],
            "type" : "VEC3"
        },
        {
            "bufferView" : 17,
            "componentType" : 5126,
            "count" : 384,
            "type" : "VEC3"
        },
        {
            "bufferView" : 18,
            "componentType" : 5126,
            "count" : 384,
            "type" : "VEC2"
        }
    ],
    "bufferViews" : [
        {
            "buffer" : 0,
            "byteLength" : 78408,
            "byteOffset" : 0
        },
        {
            "buffer" : 0,
            "byteLength" : 78408,
            "byteOffset" : 78408
        },
        {
            "buffer" : 0,
            "byteLength" : 52272,
            "byteOffset" : 156816
        },
        {
            "buffer" : 0,
            "byteLength" : 73728,
            "byteOffset" : 209088
        },
        {
            "buffer" : 0,
            "byteLength" : 31092,
            "byteOffset" : 282816
        },
        {
            "buffer" : 0,
            "byteLength" : 31092,
            "byteOffset" : 313908
        },
        {
            "buffer" : 0,
            "byteLength" : 20728,
            "byteOffset" : 345000
        },
        {
            "buffer" : 0,
            "byteLength" : 5790,
            "byteOffset" : 365728
        },
        {
            "buffer" : 0,
            "byteLength" : 3744,
            "byteOffset" : 371520
        },
        {
            "buffer" : 0,
            "byteLength" : 3744,
            "byteOffset" : 375264
        },
        {
            "buffer" : 0,
            "byteLength" : 2496,
            "byteOffset" : 379008
        },
        {
            "buffer" : 0,
            "byteLength" : 1440,
            "byteOffset" : 381504
        },
        {
            "buffer" : 0,
            "byteLength" : 4608,
            "byteOffset" : 382944
        },
        {
            "buffer" : 0,
            "byteLength" : 4608,
            "byteOffset" : 387552
        },
        {
            "buffer" : 0,
            "byteLength" : 3072,
            "byteOffset" : 392160
        },
        {
            "buffer" : 0,
            "byteLength" : 1488,
            "byteOffset" : 395232
        },
        {
            "buffer" : 0,
            "byteLength" : 4608,
            "byteOffset" : 396720
        },
        {
            "buffer" : 0,
            "byteLength" : 4608,
            "byteOffset" : 401328
        },
        {
            "buffer" : 0,
            "byteLength" : 3072,
            "byteOffset" : 405936
        }
    ],
    "samplers" : [
        {
            "magFilter" : 9729,
            "minFilter" : 9987
        }
    ],
    "buffers" : [
        {
            "byteLength" : 409008,
            "uri" : "scene.bin"
        }
    ]
}
